HIERARCHY
ROOT Hips
{
	OFFSET 0.00000 0.00000 0.00000
	CHANNELS 6 Xposition Yposition Zposition Zrotation Yrotation Xrotation 
	JOINT LHipJoint
	{
		OFFSET 0 0 0
		CHANNELS 3 Zrotation Yrotation Xrotation
		JOINT LeftUpLeg
		{
			OFFSET 1.43652 -1.81092 0.91346
			CHANNELS 3 Zrotation Yrotation Xrotation
			JOINT LeftLeg
			{
				OFFSET 2.45984 -6.75837 0.00000
				CHANNELS 3 Zrotation Yrotation Xrotation
				JOINT LeftFoot
				{
					OFFSET 2.63718 -7.24559 0.00000
					CHANNELS 3 Zrotation Yrotation Xrotation
					JOINT LeftToeBase
					{
						OFFSET 0.19690 -0.54098 2.12239
						CHANNELS 3 Zrotation Yrotation Xrotation
						End Site
						{
							OFFSET 0.00000 -0.00000 1.10116
						}
					}
				}
			}
		}
	}
	JOINT RHipJoint
	{
		OFFSET 0 0 0
		CHANNELS 3 Zrotation Yrotation Xrotation
		JOINT RightUpLeg
		{
			OFFSET -1.35116 -1.81092 0.91345
			CHANNELS 3 Zrotation Yrotation Xrotation
			JOINT RightLeg
			{
				OFFSET -2.55576 -7.02189 0.00000
				CHANNELS 3 Zrotation Yrotation Xrotation
				JOINT RightFoot
				{
					OFFSET -2.61938 -7.19669 0.00000
					CHANNELS 3 Zrotation Yrotation Xrotation
					JOINT RightToeBase
					{
						OFFSET -0.32509 -0.89318 2.23646
						CHANNELS 3 Zrotation Yrotation Xrotation
						End Site
						{
							OFFSET -0.00000 -0.00000 1.19625
						}
					}
				}
			}
		}
	}
	JOINT LowerBack
	{
		OFFSET 0 0 0
		CHANNELS 3 Zrotation Yrotation Xrotation
		JOINT Spine
		{
			OFFSET 0.05193 2.08077 -0.11958
			CHANNELS 3 Zrotation Yrotation Xrotation
			JOINT Spine1
			{
				OFFSET 0.04960 2.08447 0.01967
				CHANNELS 3 Zrotation Yrotation Xrotation
				JOINT Neck
				{
					OFFSET 0 0 0
					CHANNELS 3 Zrotation Yrotation Xrotation
					JOINT Neck1
					{
						OFFSET -0.10699 1.82066 0.27584
						CHANNELS 3 Zrotation Yrotation Xrotation
						JOINT Head
						{
							OFFSET 0.14949 1.84747 -0.32279
							CHANNELS 3 Zrotation Yrotation Xrotation
							End Site
							{
								OFFSET 0.04969 1.88916 -0.14562
							}
						}
					}
				}
				JOINT LeftShoulder
				{
					OFFSET 0 0 0
					CHANNELS 3 Zrotation Yrotation Xrotation
					JOINT LeftArm
					{
						OFFSET 3.73629 1.27211 -0.12847
						CHANNELS 3 Zrotation Yrotation Xrotation
						JOINT LeftForeArm
						{
							OFFSET 5.10995 -0.00000 0.00000
							CHANNELS 3 Zrotation Yrotation Xrotation
							JOINT LeftHand
							{
								OFFSET 3.21207 -0.00000 0.00000
								CHANNELS 3 Zrotation Yrotation Xrotation
								JOINT LeftFingerBase
								{
									OFFSET 0 0 0
									CHANNELS 3 Zrotation Yrotation Xrotation
									JOINT LeftHandIndex1
									{
										OFFSET 0.63349 -0.00000 0.00000
										CHANNELS 3 Zrotation Yrotation Xrotation
										End Site
										{
											OFFSET 0.51074 -0.00000 0.00000
										}
									}
								}
								JOINT LThumb
								{
									OFFSET 0 0 0
									CHANNELS 3 Zrotation Yrotation Xrotation
									End Site
									{
										OFFSET 0.51853 -0.00000 0.51853
									}
								}
							}
						}
					}
				}
				JOINT RightShoulder
				{
					OFFSET 0 0 0
					CHANNELS 3 Zrotation Yrotation Xrotation
					JOINT RightArm
					{
						OFFSET -3.70251 1.29541 -0.35354
						CHANNELS 3 Zrotation Yrotation Xrotation
						JOINT RightForeArm
						{
							OFFSET -5.25109 -0.00000 0.00000
							CHANNELS 3 Zrotation Yrotation Xrotation
							JOINT RightHand
							{
								OFFSET -3.28364 -0.00000 0.00000
								CHANNELS 3 Zrotation Yrotation Xrotation
								JOINT RightFingerBase
								{
									OFFSET 0 0 0
									CHANNELS 3 Zrotation Yrotation Xrotation
									JOINT RightHandIndex1
									{
										OFFSET -0.59974 -0.00000 0.00000
										CHANNELS 3 Zrotation Yrotation Xrotation
										End Site
										{
											OFFSET -0.48353 -0.00000 0.00000
										}
									}
								}
								JOINT RThumb
								{
									OFFSET 0 0 0
									CHANNELS 3 Zrotation Yrotation Xrotation
									End Site
									{
										OFFSET -0.49091 -0.00000 0.49091
									}
								}
							}
						}
					}
				}
			}
		}
	}
}
MOTION
Frames: 14
Frame Time: .0083333
5.266 17.8168 -32.5346 0 0 0 0 0 0 -21 0 0 0 0 0 0 0 0 0 0 0 0 0 0 21 0 0 0 0 0 0 0 0 0 0 0 0 0 0 0 0 0 0 0 0 0 0 -16 0 0 21 0 0 11 0 0 0 -8 0 0 0 0 0 0 0 0 0 0 0 0 0 0 0 0 0 0 0 0 8 0 0 0 0 0 0 0 0 0 0 0 0 0 0 0 0 0
5.2660 17.8168 -32.5346 -4.9950 -4.8739 4.4457 0.0000 0.0000 0.0000 -13.0364 -1.3692 -4.7251 0.8553 5.8978 16.4881 0.4092 -0.3253 -11.9753 0.0467 -1.3949 -3.8362 0.0000 0.0000 0.0000 22.7798 6.6720 -6.4371 -1.4975 -7.7298 21.8964 -0.8262 -2.5367 -18.2675 -0.0130 -0.7360 2.0227 2.5224 -0.9660 1.7873 3.8973 -1.0915 -2.3128 2.6566 -0.5570 -3.3575 -19.0121 -14.5102 -5.3576 12.4401 -19.5531 11.4738 4.9201 -9.6018 7.4977 0.0000 -0.0000 0.0000 -89.8705 5.2149 9.2102 14.7106 -23.7414 -3.1085 -0.0000 -0.0000 6.5252 11.3336 9.0756 1.8108 -7.1250 0.0000 -0.0000 -13.4529 38.8920 2.0685 0.0000 -0.0000 0.0000 88.8936 4.8689 13.9482 -9.2732 15.5947 -1.2726 0.0000 0.0000 3.9874 -17.3400 3.4396 -1.0732 7.1250 -0.0000 -0.0000 7.0432 -26.3646 3.2056
5.2681 17.8148 -32.5264 -5.0200 -4.5446 4.2817 0.0000 0.0000 0.0000 -12.9829 -1.4863 -4.5286 0.8548 5.8962 16.4837 0.4123 -0.4858 -11.9699 0.0445 -1.3618 -3.7450 0.0000 0.0000 0.0000 22.8624 6.4560 -6.1855 -1.4837 -7.6957 21.7935 -0.8266 -2.7132 -18.3621 -0.0147 -0.7829 2.1515 2.5280 -1.1386 1.8175 3.9198 -1.3204 -2.3005 2.6880 -0.6710 -3.3553 -18.1524 -14.3713 -5.2351 11.5735 -19.3004 11.2372 4.5911 -9.5043 7.1792 0.0000 -0.0000 0.0000 -89.8864 5.3032 9.6385 15.0101 -24.1602 -3.2301 -0.0000 -0.0000 6.3430 11.4273 9.3254 1.8760 -7.1250 0.0000 -0.0000 -13.4285 39.1463 1.9787 0.0000 -0.0000 0.0000 88.6483 4.6946 14.7553 -9.4893 15.9367 -1.3313 0.0000 0.0000 2.9897 -17.7232 3.2904 -1.0509 7.1250 -0.0000 -0.0000 6.7599 -26.5136 3.0512
5.2706 17.8153 -32.5227 -5.0723 -4.5257 4.2884 0.0000 0.0000 0.0000 -12.9257 -1.4849 -4.5302 0.8553 5.8980 16.4889 0.4122 -0.5120 -11.9591 0.0449 -1.3670 -3.7592 0.0000 0.0000 0.0000 22.9248 6.4735 -6.1410 -1.4755 -7.6754 21.7324 -0.8225 -2.7936 -18.3616 -0.0142 -0.7705 2.1176 2.6269 -1.1069 1.8125 3.8978 -1.2807 -2.1859 2.6052 -0.6536 -3.2376 -17.7385 -14.4466 -6.0416 11.0983 -19.2762 11.7448 4.3241 -9.4711 7.3841 0.0000 0.0000 0.0000 -89.8147 4.9445 10.2101 15.2099 -24.4377 -3.3123 -0.0000 -0.0000 6.2058 11.4815 9.1186 1.8437 -7.1250 0.0000 -0.0000 -13.3373 38.9455 2.0320 0.0000 0.0000 0.0000 88.4419 4.8680 15.3250 -9.7246 16.3076 -1.3966 0.0000 0.0000 2.0194 -17.8734 2.9230 -0.9421 7.1250 -0.0000 -0.0000 6.6636 -26.8946 2.9471
5.2733 17.8159 -32.5222 -5.0812 -4.5143 4.3145 0.0000 0.0000 0.0000 -12.9221 -1.4960 -4.5514 0.8550 5.8968 16.4853 0.4132 -0.5247 -11.9699 0.0447 -1.3638 -3.7505 0.0000 0.0000 0.0000 22.9284 6.4754 -6.1283 -1.4670 -7.6544 21.6691 -0.8202 -2.7921 -18.3369 -0.0132 -0.7416 2.0380 2.5955 -1.1487 1.8203 3.9180 -1.3349 -2.2241 2.6473 -0.6798 -3.2791 -18.4180 -14.3522 -5.7203 11.8937 -19.2578 11.6804 4.6905 -9.4552 7.4602 -0.0000 0.0000 0.0000 -89.8334 4.9170 10.5463 15.4593 -24.7820 -3.4161 -0.0000 -0.0000 6.0986 11.5975 8.8692 1.8123 -7.1250 0.0000 -0.0000 -13.1857 38.7071 2.0869 -0.0000 0.0000 0.0000 88.2440 4.9001 15.3940 -9.8085 16.4395 -1.4203 0.0000 0.0000 1.7790 -17.9033 2.9290 -0.9457 7.1250 -0.0000 -0.0000 6.6405 -26.8879 2.9379
5.2755 17.8161 -32.5192 -5.0942 -4.4079 4.3024 0.0000 0.0000 0.0000 -12.9012 -1.5362 -4.5331 0.8548 5.8962 16.4835 0.4146 -0.5941 -11.9694 0.0447 -1.3645 -3.7524 0.0000 0.0000 0.0000 22.9536 6.4257 -6.0776 -1.4603 -7.6377 21.6188 -0.8205 -2.8460 -18.3685 -0.0129 -0.7328 2.0140 2.5997 -1.2008 1.8163 3.9209 -1.4056 -2.2020 2.6505 -0.7151 -3.2521 -18.4725 -14.3155 -5.8201 11.9730 -19.2081 11.7930 4.7222 -9.4249 7.5204 -0.0000 0.0000 0.0000 -89.8104 4.8421 11.0175 15.7411 -25.1684 -3.5351 -0.0000 -0.0000 5.9222 11.6927 8.7486 1.8030 -7.1250 0.0000 -0.0000 -13.0798 38.5944 2.1064 -0.0000 0.0000 0.0000 88.0944 5.1152 15.1490 -9.8116 16.4444 -1.4212 0.0000 0.0000 1.7724 -18.0048 2.8670 -0.9314 7.1250 -0.0000 -0.0000 6.5662 -26.9511 2.8948
5.2775 17.8165 -32.5164 -5.0941 -4.2976 4.3011 0.0000 0.0000 0.0000 -12.8930 -1.5762 -4.5254 0.8537 5.8924 16.4726 0.4156 -0.6717 -11.9617 0.0449 -1.3672 -3.7598 0.0000 0.0000 0.0000 22.9633 6.3799 -6.0534 -1.4568 -7.6288 21.5923 -0.8224 -2.8932 -18.4131 -0.0124 -0.7179 1.9728 2.5890 -1.2531 1.7985 3.9188 -1.4778 -2.1816 2.6566 -0.7508 -3.2188 -18.5366 -14.2933 -5.9322 12.0625 -19.1807 11.9375 4.7535 -9.4043 7.5986 -0.0000 0.0000 0.0000 -89.7728 4.7827 11.5177 16.0402 -25.5752 -3.6633 -0.0000 -0.0000 5.7149 11.7840 8.6580 1.7988 -7.1250 0.0000 -0.0000 -12.9839 38.5111 2.1175 -0.0000 0.0000 0.0000 87.9752 5.4151 14.6057 -9.7406 16.3329 -1.4011 0.0000 0.0000 2.0663 -18.0756 2.8529 -0.9306 7.1250 -0.0000 -0.0000 6.5129 -26.9650 2.8689
5.2803 17.8170 -32.5154 -5.0885 -4.3012 4.3193 0.0000 0.0000 0.0000 -12.9074 -1.5718 -4.5393 0.8528 5.8896 16.4645 0.4159 -0.6837 -11.9628 0.0450 -1.3686 -3.7637 0.0000 0.0000 0.0000 22.9476 6.3883 -6.0574 -1.4544 -7.6227 21.5740 -0.8235 -2.8791 -18.4164 -0.0117 -0.6990 1.9208 2.5676 -1.2698 1.7862 3.9126 -1.5020 -2.1725 2.6627 -0.7625 -3.2014 -18.5493 -14.2733 -6.0310 12.0957 -19.1561 12.0945 4.7606 -9.3870 7.6679 -0.0000 0.0000 0.0000 -89.7248 4.7489 12.0328 16.3485 -25.9909 -3.7974 -0.0000 -0.0000 5.4800 11.8639 8.6256 1.8046 -7.1250 0.0000 -0.0000 -12.9098 38.4845 2.1135 -0.0000 0.0000 0.0000 87.8650 5.7330 13.9494 -9.6423 16.1781 -1.3736 0.0000 0.0000 2.4833 -18.1410 2.8674 -0.9390 7.1250 -0.0000 -0.0000 6.4623 -26.9489 2.8488
5.2839 17.8176 -32.5157 -5.0787 -4.4137 4.3552 0.0000 0.0000 0.0000 -12.9420 -1.5278 -4.5747 0.8530 5.8904 16.4667 0.4158 -0.6312 -11.9759 0.0449 -1.3669 -3.7590 0.0000 0.0000 0.0000 22.9092 6.4511 -6.0939 -1.4549 -7.6240 21.5779 -0.8241 -2.8116 -18.3878 -0.0110 -0.6770 1.8604 2.5383 -1.2489 1.7847 3.9027 -1.4754 -2.1732 2.6677 -0.7486 -3.2014 -18.5069 -14.2544 -6.1440 12.0478 -19.1261 12.2869 4.7340 -9.3691 7.7362 -0.0000 -0.0000 0.0000 -89.6671 4.7282 12.5592 16.6541 -26.3996 -3.9323 -0.0000 -0.0000 5.2199 11.9368 8.6173 1.8143 -7.1250 0.0000 -0.0000 -12.8468 38.4816 2.1037 -0.0000 -0.0000 0.0000 87.7490 6.0225 13.3324 -9.5641 16.0549 -1.3519 0.0000 0.0000 2.8516 -18.2033 2.8721 -0.9440 7.1250 -0.0000 -0.0000 6.4146 -26.9431 2.8284
5.2884 17.8183 -32.5179 -5.0738 -4.6518 4.4120 0.0000 0.0000 0.0000 -12.9892 -1.4382 -4.6373 0.8548 5.8961 16.4833 0.4150 -0.5034 -12.0037 0.0446 -1.3632 -3.7488 0.0000 0.0000 0.0000 22.8557 6.5783 -6.1655 -1.4580 -7.6318 21.6012 -0.8236 -2.6855 -18.3163 -0.0100 -0.6471 1.7783 2.5073 -1.1875 1.8005 3.8937 -1.3932 -2.1925 2.6729 -0.7071 -3.2320 -18.4975 -14.2256 -6.2570 11.9901 -19.0841 12.5480 4.7095 -9.3477 7.8277 0.0000 -0.0000 0.0000 -89.6063 4.7180 13.0692 16.9451 -26.7853 -4.0626 -0.0000 -0.0000 4.9593 11.9999 8.6442 1.8298 -7.1250 0.0000 -0.0000 -12.7992 38.5129 2.0856 0.0000 -0.0000 0.0000 87.6114 6.2321 12.9105 -9.5381 16.0138 -1.3447 0.0000 0.0000 3.0286 -18.2649 2.8644 -0.9449 7.1250 -0.0000 -0.0000 6.3680 -26.9504 2.8065
5.2935 17.8186 -32.5213 -5.0748 -4.9756 4.4816 0.0000 0.0000 0.0000 -13.0404 -1.2958 -4.7293 0.8582 5.9078 16.5172 0.4143 -0.3495 -12.0419 0.0441 -1.3556 -3.7278 0.0000 0.0000 0.0000 22.7944 6.7485 -6.2581 -1.4628 -7.6439 21.6375 -0.8217 -2.5224 -18.2145 -0.0092 -0.6207 1.7058 2.4773 -1.0981 1.8315 3.8861 -1.2719 -2.2256 2.6779 -0.6461 -3.2864 -18.4961 -14.1768 -6.3235 11.9219 -19.0187 12.8013 4.6903 -9.3185 7.9050 -0.0000 -0.0000 0.0000 -89.5459 4.7150 13.5519 17.2184 -27.1448 -4.1865 -0.0000 -0.0000 4.7118 12.0766 8.6469 1.8424 -7.1250 0.0000 -0.0000 -12.7351 38.5211 2.0721 -0.0000 -0.0000 0.0000 87.4474 6.3445 12.7733 -9.5829 16.0845 -1.3571 0.0000 0.0000 2.9072 -18.3280 2.8323 -0.9378 7.1250 -0.0000 -0.0000 6.3214 -26.9831 2.7808
5.2986 17.8190 -32.5249 -5.0855 -5.3020 4.5523 0.0000 0.0000 0.0000 -13.0819 -1.1620 -4.8239 0.8628 5.9231 16.5616 0.4138 -0.1853 -12.0884 0.0436 -1.3479 -3.7067 0.0000 0.0000 0.0000 22.7430 6.9219 -6.3516 -1.4679 -7.6565 21.6754 -0.8200 -2.3566 -18.1133 -0.0086 -0.5992 1.6466 2.4516 -1.0077 1.8718 3.8833 -1.1482 -2.2678 2.6854 -0.5839 -3.3559 -18.5297 -14.1091 -6.3652 11.8682 -18.9317 13.0724 4.6857 -9.2809 7.9859 -0.0000 0.0000 0.0000 -89.4884 4.7224 14.0017 17.4797 -27.4858 -4.3064 -0.0000 -0.0000 4.4831 12.1602 8.6240 1.8507 -7.1250 0.0000 -0.0000 -12.6599 38.5044 2.0647 -0.0000 0.0000 0.0000 87.2817 6.4297 12.6671 -9.6388 16.1725 -1.3726 0.0000 0.0000 2.7454 -18.3932 2.8023 -0.9314 7.1250 -0.0000 -0.0000 6.2730 -27.0136 2.7548
5.3034 17.8189 -32.5278 -5.1025 -5.5605 4.6092 0.0000 0.0000 0.0000 -13.1056 -1.0333 -4.9152 0.8677 5.9393 16.6085 0.4140 -0.0832 -12.1274 0.0432 -1.3408 -3.6869 0.0000 0.0000 0.0000 22.7086 7.0555 -6.4288 -1.4723 -7.6674 21.7084 -0.8189 -2.2191 -18.0345 -0.0081 -0.5828 1.6014 2.4358 -0.9399 1.9128 3.8814 -1.0547 -2.3030 2.6897 -0.5370 -3.4179 -18.5588 -14.0342 -6.4384 11.7975 -18.8292 13.3757 4.6752 -9.2359 8.0784 0.0000 -0.0000 0.0000 -89.4264 4.7191 14.4227 17.7329 -27.8138 -4.4239 -0.0000 -0.0000 4.2731 12.2508 8.5965 1.8590 -7.1250 0.0000 -0.0000 -12.5778 38.4834 2.0574 0.0000 -0.0000 0.0000 87.1215 6.5217 12.5654 -9.6939 16.2593 -1.3880 0.0000 0.0000 2.5666 -18.4477 2.7871 -0.9293 7.1250 -0.0000 -0.0000 6.2321 -27.0288 2.7344
5.3077 17.8190 -32.5297 -5.1194 -5.7260 4.6496 0.0000 0.0000 0.0000 -13.1177 -0.9582 -4.9792 0.8717 5.9527 16.6471 0.4143 -0.0138 -12.1565 0.0428 -1.3359 -3.6736 0.0000 0.0000 0.0000 22.6884 7.1394 -6.4813 -1.4748 -7.6738 21.7276 -0.8181 -2.1278 -17.9820 -0.0082 -0.5852 1.6080 2.4243 -0.9008 1.9502 3.8782 -1.0000 -2.3275 2.6915 -0.5096 -3.4659 -18.5560 -13.9541 -6.5553 11.7011 -18.7126 13.7038 4.6515 -9.1828 8.1790 -0.0000 0.0000 0.0000 -89.3577 4.6974 14.8199 17.9751 -28.1252 -4.5375 -0.0000 -0.0000 4.0788 12.3264 8.5674 1.8645 -7.1250 0.0000 -0.0000 -12.5083 38.4599 2.0529 -0.0000 0.0000 0.0000 86.9692 6.6322 12.4492 -9.7408 16.3331 -1.4012 0.0000 0.0000 2.3968 -18.5115 2.7824 -0.9312 7.1250 -0.0000 -0.0000 6.1836 -27.0328 2.7123
